<svg data-logo="logo" xmlns="http://www.w3.org/2000/svg" viewBox="0 0 129 43">
        <g style="opacity: 1;" id="logogram" transform="translate(0, 1) rotate(0)"><path d="M20.3018 10.27C20.3018 15.7928 15.8246 20.27 10.3018 20.27H0.301758V10.27C0.301758 4.74714 4.7789 0.269989 10.3018 0.269989C15.8246 0.269989 20.3018 4.74714 20.3018 10.27Z" fill="#17CF97"></path><path d="M20.3018 30.27C20.3018 24.7471 24.7789 20.27 30.3018 20.27H40.3018V30.27C40.3018 35.7928 35.8246 40.27 30.3018 40.27C24.7789 40.27 20.3018 35.7928 20.3018 30.27Z" fill="#17CF97"></path><path d="M0.301758 30.27C0.301758 35.7928 4.7789 40.27 10.3018 40.27H20.3018V30.27C20.3018 24.7471 15.8246 20.27 10.3018 20.27C4.7789 20.27 0.301758 24.7471 0.301758 30.27Z" fill="#17CF97"></path><path d="M40.3018 10.27C40.3018 4.74714 35.8246 0.269989 30.3018 0.269989H20.3018V10.27C20.3018 15.7928 24.7789 20.27 30.3018 20.27C35.8246 20.27 40.3018 15.7928 40.3018 10.27Z" fill="#17CF97"></path></g>
        <g style="opacity: 1;" id="logotype" transform="translate(47, 1.5)"><path fill="#000000" d="M16.82 33.38L16.82 33.38Q13.90 33.38 11.78 32.18Q9.66 30.98 8.52 28.78Q7.38 26.57 7.38 23.55L7.38 23.55Q7.38 20.59 8.51 18.37Q9.64 16.15 11.71 14.90Q13.78 13.65 16.56 13.65L16.56 13.65Q18.44 13.65 20.06 14.25Q21.69 14.85 22.92 16.06Q24.15 17.26 24.84 19.07Q25.53 20.88 25.53 23.34L25.53 23.34L25.53 24.78L9.49 24.78L9.49 21.57L23.02 21.57L20.63 22.42Q20.63 20.93 20.18 19.83Q19.72 18.73 18.83 18.12Q17.93 17.52 16.60 17.52L16.60 17.52Q15.28 17.52 14.35 18.13Q13.42 18.75 12.94 19.80Q12.46 20.85 12.46 22.20L12.46 22.20L12.46 24.47Q12.46 26.13 13.02 27.26Q13.57 28.39 14.57 28.95Q15.57 29.51 16.90 29.51L16.90 29.51Q17.81 29.51 18.54 29.26Q19.28 29.00 19.80 28.50Q20.32 27.99 20.59 27.26L20.59 27.26L25.24 28.13Q24.78 29.70 23.64 30.89Q22.49 32.08 20.77 32.73Q19.06 33.38 16.82 33.38ZM34.90 23.48L31.41 27.41L31.41 21.24L32.18 21.24L38.43 13.89L44.36 13.89L36.11 23.48L34.90 23.48ZM31.89 33L26.76 33L26.76 7.54L31.89 7.54L31.89 33ZM44.72 33L38.69 33L32.95 24.63L36.38 20.99L44.72 33ZM50.12 33.38L50.12 33.38Q48.31 33.38 46.87 32.74Q45.42 32.09 44.59 30.82Q43.76 29.55 43.76 27.65L43.76 27.65Q43.76 26.06 44.35 24.98Q44.94 23.91 45.96 23.26Q46.98 22.61 48.27 22.27Q49.56 21.93 50.98 21.79L50.98 21.79Q52.63 21.62 53.65 21.47Q54.67 21.33 55.14 21.01Q55.61 20.70 55.61 20.08L55.61 20.08L55.61 19.99Q55.61 19.17 55.27 18.61Q54.92 18.05 54.26 17.75Q53.59 17.45 52.62 17.45L52.62 17.45Q51.63 17.45 50.89 17.75Q50.16 18.05 49.69 18.54Q49.23 19.04 49.01 19.65L49.01 19.65L44.31 18.87Q44.81 17.21 45.95 16.05Q47.10 14.88 48.80 14.27Q50.50 13.65 52.62 13.65L52.62 13.65Q54.17 13.65 55.62 14.02Q57.08 14.39 58.23 15.16Q59.38 15.93 60.06 17.16Q60.73 18.39 60.73 20.13L60.73 20.13L60.73 33L55.88 33L55.88 30.35L55.71 30.35Q55.25 31.24 54.48 31.91Q53.71 32.59 52.63 32.98Q51.54 33.38 50.12 33.38ZM51.57 29.77L51.57 29.77Q52.79 29.77 53.70 29.29Q54.62 28.81 55.13 27.99Q55.64 27.17 55.64 26.16L55.64 26.16L55.64 24.10Q55.42 24.27 54.96 24.40Q54.50 24.54 53.93 24.64Q53.37 24.75 52.82 24.83Q52.28 24.92 51.85 24.97L51.85 24.97Q50.91 25.10 50.19 25.41Q49.47 25.72 49.08 26.22Q48.69 26.73 48.69 27.51L48.69 27.51Q48.69 28.25 49.06 28.75Q49.44 29.26 50.08 29.51Q50.72 29.77 51.57 29.77ZM67.96 40.14L62.83 40.14L62.83 13.89L67.88 13.89L67.88 17.11L68.12 17.11Q68.47 16.35 69.13 15.55Q69.79 14.75 70.87 14.20Q71.94 13.65 73.57 13.65L73.57 13.65Q75.69 13.65 77.45 14.75Q79.21 15.84 80.26 18.03Q81.31 20.22 81.31 23.48L81.31 23.48Q81.31 26.66 80.28 28.86Q79.26 31.05 77.50 32.19Q75.74 33.32 73.53 33.32L73.53 33.32Q71.98 33.32 70.90 32.79Q69.82 32.27 69.15 31.49Q68.47 30.71 68.12 29.94L68.12 29.94L67.96 29.94L67.96 40.14ZM71.96 29.21L71.96 29.21Q73.29 29.21 74.21 28.47Q75.12 27.74 75.59 26.44Q76.06 25.14 76.06 23.46L76.06 23.46Q76.06 21.79 75.59 20.51Q75.12 19.23 74.22 18.49Q73.31 17.76 71.96 17.76L71.96 17.76Q70.64 17.76 69.72 18.47Q68.80 19.17 68.32 20.45Q67.84 21.72 67.84 23.46L67.84 23.46Q67.84 25.19 68.33 26.48Q68.82 27.77 69.74 28.49Q70.66 29.21 71.96 29.21Z"></path></g>

      </svg>